<?xml version="1.0" encoding="utf-8"?>
<!-- Generator: Adobe Illustrator 26.0.2, SVG Export Plug-In . SVG Version: 6.00 Build 0)  -->
<svg version="1.1" id="logo-33" xmlns="http://www.w3.org/2000/svg" xmlns:xlink="http://www.w3.org/1999/xlink" x="0px" y="0px"
	 viewBox="0 0 160 46" style="enable-background:new 0 0 160 46;" xml:space="preserve">
<style type="text/css">
	.st0{fill-rule:evenodd;clip-rule:evenodd;fill:#4845D2;}
	.st1{fill-rule:evenodd;clip-rule:evenodd;fill:#A3A2FF;}
	.st2{opacity:0.6;fill:#424242;enable-background:new    ;}
	.st3{fill:#4845D2;}
</style>
<path class="st0" d="M37.8,4.4c-1.5-1.5-3.9-1.5-5.4,0L19.9,16.8l0,0l0,0c0,0,0,0,0,0c-2.2,0.2-3.1,0.9-3.1,1.7c0,0.3,0.1,0.7,0.4,1
	l0,0c2,3,11.8,7,18.8,4.3c-5.2,2.6-17.5,3.1-21.1-1.9c-0.8,0.8-1.1,2-1,3c1,5.3,11.6,6.7,22.3-0.9l2.3,2.3c-2.9,3-7.1,20.1-0.8,17.5
	c0.1-0.1,0.3-0.2,0.4-0.3l0.3-0.3c0,0,0,0,0,0l16.9-15.9c1.6-1.5,1.6-4,0.1-5.5L37.8,4.4z M35.9,9.6l0.6-2.3l0.6,2.3l1.7,0.6
	l-1.7,0.6L36.5,13l-0.6-2.3l-1.7-0.6L35.9,9.6z M28.8,17.1l0.4-1.5l0.4,1.5l1.2,0.4l-1.2,0.4l-0.4,1.5l-0.4-1.5l-1.2-0.4L28.8,17.1z
	 M42.2,30.1l-0.4,1.5L40.7,32l1.2,0.4l0.4,1.5l0.4-1.5l1.2-0.4l-1.2-0.4L42.2,30.1z"/>
<path class="st1" d="M56.5,5.9c-3.6,0-7,1.6-9.3,4.4l-8.2,9.9l4.7-7.1l-7.9,3.4c-1,0.4-1.3,1.7-0.5,2.5l2.5,2.5L36.5,23l2.8,2.8
	l1.6-1.3l2.5,2.5c0.8,0.8,2.1,0.5,2.5-0.5l3.4-7.9l-7.1,4.7l9.9-8.2C54.9,12.9,56.5,9.5,56.5,5.9z M48.6,13.7c0.8,0.8,2.1,0.8,2.8,0
	c0.8-0.8,0.8-2.1,0-2.8c-0.8-0.8-2.1-0.8-2.8,0C47.9,11.7,47.9,12.9,48.6,13.7z"/>
<path class="st2" d="M14.7,21.8c1.9,6.5,13.3,6.1,21.2,2.1C30.7,26.5,18.2,27,14.7,21.8z"/>
<path class="st2" d="M37.6,43.8c-5.3,2.2-3.1-9.6-0.6-15.2c-1.8,4.9-3.4,15.8,1.3,14.6l-0.3,0.3C37.9,43.6,37.8,43.7,37.6,43.8z"/>
<g>
	<g>
		<path class="st3" d="M65.3,30.1V13.7H72c1.1,0,2,0.1,2.9,0.4s1.4,0.7,1.9,1.3c0.4,0.6,0.7,1.4,0.7,2.4c0,0.7-0.1,1.2-0.2,1.7
			c-0.1,0.5-0.3,0.9-0.6,1.2s-0.6,0.6-1.1,0.9c0.5,0.2,0.9,0.4,1.2,0.7s0.6,0.7,0.8,1.2s0.3,1.1,0.3,1.9c0,0.9-0.1,1.6-0.4,2.2
			c-0.3,0.6-0.7,1.1-1.2,1.4c-0.5,0.4-1.1,0.6-1.8,0.7c-0.7,0.1-1.4,0.2-2.2,0.2H65.3z M69.1,20.5h2.7c0.7,0,1.3-0.2,1.6-0.5
			c0.3-0.4,0.5-0.9,0.5-1.6c0-0.7-0.2-1.2-0.5-1.5s-0.9-0.5-1.6-0.5h-2.6V20.5z M69.1,27.3h2.8c0.5,0,0.9-0.1,1.3-0.2
			c0.3-0.1,0.6-0.3,0.8-0.7c0.2-0.3,0.3-0.8,0.3-1.3c0-0.4-0.1-0.8-0.2-1.1c-0.1-0.3-0.3-0.5-0.5-0.6c-0.2-0.1-0.5-0.2-0.8-0.3
			c-0.3-0.1-0.6-0.1-0.9-0.1h-2.7V27.3z"/>
		<path class="st3" d="M85.2,30.4c-1.4,0-2.5-0.2-3.3-0.7c-0.9-0.4-1.5-1.1-1.9-2.1c-0.4-0.9-0.6-2.2-0.6-3.6c0-1.5,0.2-2.7,0.6-3.6
			c0.4-0.9,1-1.6,1.9-2c0.9-0.4,2-0.6,3.3-0.6c1.3,0,2.4,0.2,3.3,0.6c0.9,0.4,1.5,1.1,1.9,2S91,22.5,91,24c0,1.5-0.2,2.7-0.6,3.6
			c-0.4,0.9-1,1.6-1.9,2.1C87.7,30.1,86.6,30.4,85.2,30.4z M85.2,27.3c0.6,0,1-0.1,1.3-0.3c0.3-0.2,0.5-0.6,0.6-1.1
			c0.1-0.5,0.2-1.1,0.2-1.9c0-0.8-0.1-1.5-0.2-1.9c-0.1-0.5-0.3-0.8-0.6-1s-0.7-0.3-1.3-0.3c-0.5,0-0.9,0.1-1.2,0.3
			c-0.3,0.2-0.5,0.5-0.6,1c-0.1,0.5-0.2,1.1-0.2,1.9s0.1,1.4,0.2,1.9c0.1,0.5,0.3,0.9,0.6,1.1C84.2,27.2,84.6,27.3,85.2,27.3z"/>
		<path class="st3" d="M98.3,30.4c-1.4,0-2.5-0.2-3.3-0.7c-0.9-0.4-1.5-1.1-1.9-2.1c-0.4-0.9-0.6-2.2-0.6-3.6c0-1.5,0.2-2.7,0.6-3.6
			s1-1.6,1.9-2c0.9-0.4,2-0.6,3.3-0.6c1.3,0,2.4,0.2,3.3,0.6c0.9,0.4,1.5,1.1,1.9,2s0.6,2.1,0.6,3.6c0,1.5-0.2,2.7-0.6,3.6
			c-0.4,0.9-1,1.6-1.9,2.1C100.8,30.1,99.7,30.4,98.3,30.4z M98.3,27.3c0.6,0,1-0.1,1.3-0.3c0.3-0.2,0.5-0.6,0.6-1.1
			c0.1-0.5,0.2-1.1,0.2-1.9c0-0.8-0.1-1.5-0.2-1.9c-0.1-0.5-0.3-0.8-0.6-1s-0.7-0.3-1.3-0.3c-0.5,0-0.9,0.1-1.2,0.3s-0.5,0.5-0.6,1
			c-0.1,0.5-0.2,1.1-0.2,1.9s0.1,1.4,0.2,1.9s0.3,0.9,0.6,1.1C97.3,27.2,97.7,27.3,98.3,27.3z"/>
		<path class="st3" d="M106.1,30.1V13.2h3.7v9.2l1.2,0l2.2-4.4h3.8l-2.8,5.7l2.9,6.4h-3.8l-2.3-4.5l-1.3,0v4.5H106.1z"/>
		<path class="st3" d="M118.4,30.1v-3.8h3.8v3.8H118.4z"/>
		<path class="st3" d="M124.7,30.1V13.7h3.8v13.2h6.2v3.2H124.7z"/>
		<path class="st3" d="M139.8,30.1v-6l-4.9-10.3h4.1l2.8,6.2l2.8-6.2h4.1l-5,10.3v6H139.8z"/>
	</g>
</g>
</svg>
